<svg width="17" height="17" viewBox="0 0 17 17" fill="none" xmlns="http://www.w3.org/2000/svg">
<g clip-path="url(#clip0_9200_8792)">
<path d="M14.5095 2.48856C11.1896 -0.830387 5.80764 -0.82959 2.48869 2.49039C-0.830265 5.81037 -0.829468 11.1923 2.49051 14.5112C5.81049 17.8302 11.1924 17.8294 14.5113 14.5094C16.1053 12.9149 17.0005 10.7526 17 8.49806C16.9995 6.2439 16.1037 4.08225 14.5095 2.48856ZM12.873 11.8403C12.8726 11.8407 12.8722 11.8411 12.8718 11.8414V11.8386L12.4412 12.2664C11.8842 12.8304 11.073 13.0625 10.302 12.8784C9.52519 12.6705 8.78675 12.3395 8.11466 11.8981C7.49024 11.499 6.91157 11.0325 6.38916 10.5069C5.90848 10.0298 5.47664 9.50581 5.09998 8.94292C4.68799 8.33723 4.36191 7.67742 4.13098 6.98224C3.86625 6.16558 4.08562 5.26946 4.69766 4.66742L5.20198 4.1631C5.3422 4.02225 5.57004 4.02175 5.71085 4.16197C5.71122 4.16233 5.71161 4.1627 5.71198 4.1631L7.3043 5.75542C7.44515 5.89564 7.44565 6.12348 7.30543 6.26429C7.30507 6.26466 7.3047 6.26502 7.3043 6.26542L6.3693 7.20042C6.10102 7.46578 6.06729 7.88746 6.28998 8.1921C6.62815 8.65621 7.00239 9.09293 7.40916 9.49827C7.86268 9.95376 8.35571 10.3681 8.88248 10.7365C9.18685 10.9488 9.5995 10.913 9.8628 10.6515L10.7666 9.73345C10.9068 9.59261 11.1347 9.59211 11.2755 9.73232C11.2759 9.73269 11.2762 9.73305 11.2766 9.73345L12.8718 11.3315C13.0127 11.4716 13.0132 11.6994 12.873 11.8403Z" fill="#D0B59C"/>
</g>
<defs>
<clipPath id="clip0_9200_8792">
<rect width="17" height="17" fill="white"/>
</clipPath>
</defs>
</svg>
