<svg width="16" height="16" viewBox="0 0 16 16" fill="none" xmlns="http://www.w3.org/2000/svg">
<path fill-rule="evenodd" clip-rule="evenodd" d="M7.73203 11.2666C7.66536 11.2666 7.5987 11.2 7.53203 11.1333L4.86536 8.46663C4.5987 8.19996 4.5987 7.79996 4.86536 7.53329C5.13203 7.26663 5.53203 7.26663 5.7987 7.53329L7.33203 9.06663V1.33329C7.33203 0.933293 7.5987 0.666626 7.9987 0.666626C8.3987 0.666626 8.66536 0.933293 8.66536 1.33329V9.06663L10.1987 7.53329C10.4654 7.26663 10.8654 7.26663 11.132 7.53329C11.3987 7.79996 11.3987 8.19996 11.132 8.46663L8.46536 11.1333C8.43203 11.1666 8.3987 11.1833 8.36536 11.2C8.33203 11.2166 8.2987 11.2333 8.26536 11.2666C8.1987 11.3333 8.06536 11.3333 7.9987 11.3333C7.93203 11.3333 7.7987 11.3333 7.73203 11.2666ZM14.6654 13.3333V11.3333C14.6654 10.9333 14.3987 10.6666 13.9987 10.6666C13.5987 10.6666 13.332 10.9333 13.332 11.3333V13.3333C13.332 13.7333 13.0654 14 12.6654 14H3.33203C2.93203 14 2.66536 13.7333 2.66536 13.3333V11.3333C2.66536 10.9333 2.3987 10.6666 1.9987 10.6666C1.5987 10.6666 1.33203 10.9333 1.33203 11.3333V13.3333C1.33203 14.4666 2.1987 15.3333 3.33203 15.3333H12.6654C13.7987 15.3333 14.6654 14.4666 14.6654 13.3333Z" fill="#325ECD"/>
<mask id="mask0_9091_154207" style="mask-type:alpha" maskUnits="userSpaceOnUse" x="1" y="0" width="14" height="16">
<path fill-rule="evenodd" clip-rule="evenodd" d="M7.73203 11.2666C7.66536 11.2666 7.5987 11.2 7.53203 11.1333L4.86536 8.46663C4.5987 8.19996 4.5987 7.79996 4.86536 7.53329C5.13203 7.26663 5.53203 7.26663 5.7987 7.53329L7.33203 9.06663V1.33329C7.33203 0.933293 7.5987 0.666626 7.9987 0.666626C8.3987 0.666626 8.66536 0.933293 8.66536 1.33329V9.06663L10.1987 7.53329C10.4654 7.26663 10.8654 7.26663 11.132 7.53329C11.3987 7.79996 11.3987 8.19996 11.132 8.46663L8.46536 11.1333C8.43203 11.1666 8.3987 11.1833 8.36536 11.2C8.33203 11.2166 8.2987 11.2333 8.26536 11.2666C8.1987 11.3333 8.06536 11.3333 7.9987 11.3333C7.93203 11.3333 7.7987 11.3333 7.73203 11.2666ZM14.6654 13.3333V11.3333C14.6654 10.9333 14.3987 10.6666 13.9987 10.6666C13.5987 10.6666 13.332 10.9333 13.332 11.3333V13.3333C13.332 13.7333 13.0654 14 12.6654 14H3.33203C2.93203 14 2.66536 13.7333 2.66536 13.3333V11.3333C2.66536 10.9333 2.3987 10.6666 1.9987 10.6666C1.5987 10.6666 1.33203 10.9333 1.33203 11.3333V13.3333C1.33203 14.4666 2.1987 15.3333 3.33203 15.3333H12.6654C13.7987 15.3333 14.6654 14.4666 14.6654 13.3333Z" fill="white"/>
</mask>
<g mask="url(#mask0_9091_154207)">
<rect width="16" height="16" fill="#325ECD"/>
</g>
</svg>
