<svg width="48" height="48" viewBox="0 0 48 48" fill="none" xmlns="http://www.w3.org/2000/svg">
<path fill-rule="evenodd" clip-rule="evenodd" d="M41.6 14.9C41.65 15 41.7 15.1 41.8 15.2C42 15.4 42 15.8 42 16V40C42 43.4 39.4 46 36 46H12C8.6 46 6 43.4 6 40V8C6 4.6 8.6 2 12 2H28C28.2 2 28.6 2 28.8 2.2C29 2.2 29.2 2.4 29.4 2.6L41.4 14.6C41.5 14.7 41.55 14.8 41.6 14.9ZM35.2 14L30 8.79999V14H35.2ZM36 42H12C10.8 42 10 41.2 10 40V8C10 6.8 10.8 6 12 6H26V16C26 17.2 26.8 18 28 18H38V40C38 41.2 37.2 42 36 42ZM32 28C33.2 28 34 27.2 34 26C34 24.8 33.2 24 32 24H16C14.8 24 14 24.8 14 26C14 27.2 14.8 28 16 28H32ZM34 34C34 35.2 33.2 36 32 36H16C14.8 36 14 35.2 14 34C14 32.8 14.8 32 16 32H32C33.2 32 34 32.8 34 34ZM16 16C14.8 16 14 16.8 14 18C14 19.2 14.8 20 16 20H20C21.2 20 22 19.2 22 18C22 16.8 21.2 16 20 16H16Z" fill="#325ECD"/>
<mask id="mask0_9521_11590" style="mask-type:alpha" maskUnits="userSpaceOnUse" x="6" y="2" width="36" height="44">
<path fill-rule="evenodd" clip-rule="evenodd" d="M41.6 14.9C41.65 15 41.7 15.1 41.8 15.2C42 15.4 42 15.8 42 16V40C42 43.4 39.4 46 36 46H12C8.6 46 6 43.4 6 40V8C6 4.6 8.6 2 12 2H28C28.2 2 28.6 2 28.8 2.2C29 2.2 29.2 2.4 29.4 2.6L41.4 14.6C41.5 14.7 41.55 14.8 41.6 14.9ZM35.2 14L30 8.79999V14H35.2ZM36 42H12C10.8 42 10 41.2 10 40V8C10 6.8 10.8 6 12 6H26V16C26 17.2 26.8 18 28 18H38V40C38 41.2 37.2 42 36 42ZM32 28C33.2 28 34 27.2 34 26C34 24.8 33.2 24 32 24H16C14.8 24 14 24.8 14 26C14 27.2 14.8 28 16 28H32ZM34 34C34 35.2 33.2 36 32 36H16C14.8 36 14 35.2 14 34C14 32.8 14.8 32 16 32H32C33.2 32 34 32.8 34 34ZM16 16C14.8 16 14 16.8 14 18C14 19.2 14.8 20 16 20H20C21.2 20 22 19.2 22 18C22 16.8 21.2 16 20 16H16Z" fill="white"/>
</mask>
<g mask="url(#mask0_9521_11590)">
<rect width="48" height="48" fill="#325ECD"/>
</g>
</svg>
