<svg width="48" height="48" viewBox="0 0 48 48" fill="none" xmlns="http://www.w3.org/2000/svg">
<path fill-rule="evenodd" clip-rule="evenodd" d="M24 46C36.2 46 46 36.2 46 24C46 11.8 36.2 2 24 2C11.8 2 2 11.8 2 24C2 36.2 11.8 46 24 46ZM24.3997 27.8004C25.1997 27.6004 31.7997 25.2004 31.7997 20.0004C31.7997 16.6004 29.5997 13.6004 26.3997 12.6004C22.1997 11.0004 17.5997 13.2004 16.1997 17.4004C15.9997 18.4004 16.3997 19.6004 17.3997 19.6004C18.3997 20.0004 19.5997 19.4004 19.9997 18.4004C20.7997 16.4004 23.1997 15.2004 25.1997 16.0004C26.7997 16.6004 27.7997 18.0004 27.7997 19.8004C27.7997 22.0004 24.3997 23.6004 23.1997 24.0004C22.1997 24.4004 21.5997 25.6004 21.9997 26.6004C22.1997 27.4004 22.9997 28.0004 23.7997 28.0004C23.9997 28.0004 24.1997 28.0004 24.3997 27.8004ZM42 24C42 14 34 6 24 6C14 6 6 14 6 24C6 34 14 42 24 42C34 42 42 34 42 24ZM25.0001 32.4C25.2001 32.4 25.4001 32.6 25.4001 32.6C25.6001 32.8 25.8001 33 25.6001 33.2C25.8001 33.4 25.8001 33.8 25.8001 34C25.8001 34.6 25.6001 35 25.2001 35.4C24.8001 35.8 24.4001 36 23.8001 36C23.2001 36 22.8001 35.8 22.4001 35.4C22.0001 35 21.8001 34.6 21.8001 34C21.8001 33.7657 21.8688 33.6 21.9256 33.4627C21.9658 33.3657 22.0001 33.2828 22.0001 33.2C22.0001 33 22.2001 32.8 22.4001 32.6C22.6001 32.4 22.8001 32.2 23.0001 32.2C23.4001 32 23.8001 32 24.2001 32C24.3151 32.115 24.364 32.1639 24.4228 32.1847C24.4663 32.2 24.5151 32.2 24.6001 32.2C24.7001 32.2 24.7501 32.25 24.8001 32.3C24.8501 32.35 24.9001 32.4 25.0001 32.4Z" fill="#325ECD"/>
<mask id="mask0_9521_11609" style="mask-type:alpha" maskUnits="userSpaceOnUse" x="2" y="2" width="44" height="44">
<path fill-rule="evenodd" clip-rule="evenodd" d="M24 46C36.2 46 46 36.2 46 24C46 11.8 36.2 2 24 2C11.8 2 2 11.8 2 24C2 36.2 11.8 46 24 46ZM24.3997 27.8004C25.1997 27.6004 31.7997 25.2004 31.7997 20.0004C31.7997 16.6004 29.5997 13.6004 26.3997 12.6004C22.1997 11.0004 17.5997 13.2004 16.1997 17.4004C15.9997 18.4004 16.3997 19.6004 17.3997 19.6004C18.3997 20.0004 19.5997 19.4004 19.9997 18.4004C20.7997 16.4004 23.1997 15.2004 25.1997 16.0004C26.7997 16.6004 27.7997 18.0004 27.7997 19.8004C27.7997 22.0004 24.3997 23.6004 23.1997 24.0004C22.1997 24.4004 21.5997 25.6004 21.9997 26.6004C22.1997 27.4004 22.9997 28.0004 23.7997 28.0004C23.9997 28.0004 24.1997 28.0004 24.3997 27.8004ZM42 24C42 14 34 6 24 6C14 6 6 14 6 24C6 34 14 42 24 42C34 42 42 34 42 24ZM25.0001 32.4C25.2001 32.4 25.4001 32.6 25.4001 32.6C25.6001 32.8 25.8001 33 25.6001 33.2C25.8001 33.4 25.8001 33.8 25.8001 34C25.8001 34.6 25.6001 35 25.2001 35.4C24.8001 35.8 24.4001 36 23.8001 36C23.2001 36 22.8001 35.8 22.4001 35.4C22.0001 35 21.8001 34.6 21.8001 34C21.8001 33.7657 21.8688 33.6 21.9256 33.4627C21.9658 33.3657 22.0001 33.2828 22.0001 33.2C22.0001 33 22.2001 32.8 22.4001 32.6C22.6001 32.4 22.8001 32.2 23.0001 32.2C23.4001 32 23.8001 32 24.2001 32C24.3151 32.115 24.364 32.1639 24.4228 32.1847C24.4663 32.2 24.5151 32.2 24.6001 32.2C24.7001 32.2 24.7501 32.25 24.8001 32.3C24.8501 32.35 24.9001 32.4 25.0001 32.4Z" fill="white"/>
</mask>
<g mask="url(#mask0_9521_11609)">
<rect width="48" height="48" fill="#325ECD"/>
</g>
</svg>
