<svg width="34" height="34" viewBox="0 0 34 34" fill="none" xmlns="http://www.w3.org/2000/svg">
<path fill-rule="evenodd" clip-rule="evenodd" d="M17.0013 32.5833C25.643 32.5833 32.5846 25.6416 32.5846 17C32.5846 8.35829 25.643 1.41663 17.0013 1.41663C8.35964 1.41663 1.41797 8.35829 1.41797 17C1.41797 25.6416 8.35964 32.5833 17.0013 32.5833ZM17.2845 19.6924C17.8511 19.5507 22.5261 17.8507 22.5261 14.1674C22.5261 11.759 20.9678 9.63403 18.7011 8.9257C15.7261 7.79237 12.4678 9.3507 11.4761 12.3257C11.3345 13.034 11.6178 13.884 12.3261 13.884C13.0345 14.1674 13.8844 13.7424 14.1678 13.034C14.7345 11.6174 16.4345 10.7674 17.8511 11.334C18.9845 11.759 19.6928 12.7507 19.6928 14.0257C19.6928 15.584 17.2845 16.7174 16.4345 17.0007C15.7261 17.284 15.3011 18.134 15.5845 18.8424C15.7261 19.409 16.2928 19.834 16.8595 19.834C17.0011 19.834 17.1428 19.834 17.2845 19.6924ZM29.7513 17C29.7513 9.91663 24.0846 4.24996 17.0013 4.24996C9.91797 4.24996 4.2513 9.91663 4.2513 17C4.2513 24.0833 9.91797 29.75 17.0013 29.75C24.0846 29.75 29.7513 24.0833 29.7513 17ZM17.7097 22.95C17.8514 22.95 17.9931 23.0916 17.9931 23.0916C18.1347 23.2333 18.2764 23.375 18.1347 23.5166C18.2764 23.6583 18.2764 23.9416 18.2764 24.0833C18.2764 24.5083 18.1347 24.7916 17.8514 25.075C17.5681 25.3583 17.2847 25.5 16.8597 25.5C16.4347 25.5 16.1514 25.3583 15.8681 25.075C15.5847 24.7916 15.4431 24.5083 15.4431 24.0833C15.4431 23.9173 15.4917 23.8 15.5319 23.7027C15.5604 23.634 15.5847 23.5753 15.5847 23.5166C15.5847 23.375 15.7264 23.2333 15.8681 23.0916C16.0097 22.95 16.1514 22.8083 16.2931 22.8083C16.5764 22.6666 16.8597 22.6666 17.1431 22.6666C17.2245 22.7481 17.2591 22.7827 17.3008 22.7974C17.3316 22.8083 17.3662 22.8083 17.4264 22.8083C17.4972 22.8083 17.5326 22.8437 17.5681 22.8791C17.6035 22.9145 17.6389 22.95 17.7097 22.95Z" fill="white"/>
<mask id="mask0_9559_12877" style="mask-type:alpha" maskUnits="userSpaceOnUse" x="1" y="1" width="32" height="32">
<path fill-rule="evenodd" clip-rule="evenodd" d="M17.0013 32.5833C25.643 32.5833 32.5846 25.6416 32.5846 17C32.5846 8.35829 25.643 1.41663 17.0013 1.41663C8.35964 1.41663 1.41797 8.35829 1.41797 17C1.41797 25.6416 8.35964 32.5833 17.0013 32.5833ZM17.2845 19.6924C17.8511 19.5507 22.5261 17.8507 22.5261 14.1674C22.5261 11.759 20.9678 9.63403 18.7011 8.9257C15.7261 7.79237 12.4678 9.3507 11.4761 12.3257C11.3345 13.034 11.6178 13.884 12.3261 13.884C13.0345 14.1674 13.8844 13.7424 14.1678 13.034C14.7345 11.6174 16.4345 10.7674 17.8511 11.334C18.9845 11.759 19.6928 12.7507 19.6928 14.0257C19.6928 15.584 17.2845 16.7174 16.4345 17.0007C15.7261 17.284 15.3011 18.134 15.5845 18.8424C15.7261 19.409 16.2928 19.834 16.8595 19.834C17.0011 19.834 17.1428 19.834 17.2845 19.6924ZM29.7513 17C29.7513 9.91663 24.0846 4.24996 17.0013 4.24996C9.91797 4.24996 4.2513 9.91663 4.2513 17C4.2513 24.0833 9.91797 29.75 17.0013 29.75C24.0846 29.75 29.7513 24.0833 29.7513 17ZM17.7097 22.95C17.8514 22.95 17.9931 23.0916 17.9931 23.0916C18.1347 23.2333 18.2764 23.375 18.1347 23.5166C18.2764 23.6583 18.2764 23.9416 18.2764 24.0833C18.2764 24.5083 18.1347 24.7916 17.8514 25.075C17.5681 25.3583 17.2847 25.5 16.8597 25.5C16.4347 25.5 16.1514 25.3583 15.8681 25.075C15.5847 24.7916 15.4431 24.5083 15.4431 24.0833C15.4431 23.9173 15.4917 23.8 15.5319 23.7027C15.5604 23.634 15.5847 23.5753 15.5847 23.5166C15.5847 23.375 15.7264 23.2333 15.8681 23.0916C16.0097 22.95 16.1514 22.8083 16.2931 22.8083C16.5764 22.6666 16.8597 22.6666 17.1431 22.6666C17.2245 22.7481 17.2591 22.7827 17.3008 22.7974C17.3316 22.8083 17.3662 22.8083 17.4264 22.8083C17.4972 22.8083 17.5326 22.8437 17.5681 22.8791C17.6035 22.9145 17.6389 22.95 17.7097 22.95Z" fill="white"/>
</mask>
<g mask="url(#mask0_9559_12877)">
<rect width="34" height="34" fill="white"/>
</g>
</svg>
