<svg width="48" height="48" viewBox="0 0 48 48" fill="none" xmlns="http://www.w3.org/2000/svg">
<path fill-rule="evenodd" clip-rule="evenodd" d="M2 24C2 36.1503 11.8497 46 24 46C36.1503 46 46 36.1503 46 24C46 11.8497 36.1503 2 24 2C11.8497 2 2 11.8497 2 24ZM42 24C42 33.9411 33.9411 42 24 42C14.0589 42 6 33.9411 6 24C6 14.0589 14.0589 6 24 6C33.9411 6 42 14.0589 42 24ZM26.0072 27.9967H28.0059V31.9967H20.0059V27.9967H22.0059V23.9967H20.0059V19.9967H26.0072V27.9967ZM26.0013 15.9967C26.0013 17.1012 25.1056 17.9967 24.0007 17.9967C22.8957 17.9967 22 17.1012 22 15.9967C22 14.8921 22.8957 13.9967 24.0007 13.9967C25.1056 13.9967 26.0013 14.8921 26.0013 15.9967Z" fill="#325ECD"/>
</svg>
