<svg width="90" height="90" viewBox="0 0 90 90" fill="none" xmlns="http://www.w3.org/2000/svg">
<g filter="url(#filter0_d_9521_12860)">
<circle cx="45" cy="25" r="25" fill="#325ECD"/>
</g>
<path d="M60.9354 20.8735C60.349 20.8735 59.873 21.3495 59.873 21.9359V33.9669L51.3735 37.3667V26.1857C51.3735 25.5992 50.8976 25.1232 50.3111 25.1232C49.7246 25.1232 49.2487 25.5992 49.2487 26.1857V37.3646L40.7492 33.9648V17.1316L45.6725 19.1014C46.2101 19.3181 46.8348 19.0546 47.0537 18.5085C47.2725 17.9646 47.0069 17.3462 46.4608 17.1274L40.1011 14.5818C40.1011 14.5818 40.1011 14.5818 40.099 14.5818L40.082 14.5754C39.8291 14.4734 39.5465 14.4734 39.2937 14.5754L39.2745 14.5818C39.2745 14.5818 39.2745 14.5818 39.2724 14.5818L28.6672 18.8251C28.2656 18.9866 28 19.3755 28 19.8111V38.9349C28 39.2876 28.1764 39.617 28.4675 39.8146C28.646 39.9357 28.8521 39.9973 29.0624 39.9973C29.1963 39.9973 29.3302 39.9718 29.4577 39.9208L39.6868 35.8304L49.8968 39.9144C49.8968 39.9144 49.8968 39.9144 49.8989 39.9144L49.918 39.9229C50.1709 40.0249 50.4535 40.0249 50.7063 39.9229L50.7255 39.9144C50.7255 39.9144 50.7255 39.9144 50.7276 39.9144L61.3328 35.6732C61.7323 35.5096 61.9979 35.1207 61.9979 34.6851V21.9359C61.9979 21.3495 61.5219 20.8735 60.9354 20.8735ZM38.6243 33.9648L30.1249 37.3646V20.5293L38.6243 17.1295V33.9648Z" fill="white"/>
<path d="M54.5623 10.2494C52.805 10.2494 51.375 11.6794 51.375 13.4367C51.375 15.194 52.805 16.624 54.5623 16.624C56.3196 16.624 57.7496 15.194 57.7496 13.4367C57.7496 11.6794 56.3196 10.2494 54.5623 10.2494ZM54.5623 14.4991C53.9758 14.4991 53.4999 14.0232 53.4999 13.4367C53.4999 12.8502 53.9758 12.3743 54.5623 12.3743C55.1488 12.3743 55.6247 12.8502 55.6247 13.4367C55.6247 14.0232 55.1488 14.4991 54.5623 14.4991Z" fill="white"/>
<path d="M54.562 6C50.461 6 47.125 9.33604 47.125 13.437C47.125 17.2533 53.0916 24.0125 53.7716 24.7711C53.9734 24.9942 54.2603 25.1238 54.562 25.1238C54.8638 25.1238 55.1506 24.9942 55.3525 24.7711C56.0324 24.0125 61.9991 17.2533 61.9991 13.437C61.9991 9.33604 58.663 6 54.562 6ZM54.562 22.4401C52.2417 19.6884 49.2499 15.4642 49.2499 13.437C49.2499 10.509 51.634 8.12487 54.562 8.12487C57.4901 8.12487 59.8742 10.509 59.8742 13.437C59.8742 15.462 56.8824 19.6884 54.562 22.4401Z" fill="white"/>
<defs>
<filter id="filter0_d_9521_12860" x="0" y="0" width="90" height="90" filterUnits="userSpaceOnUse" color-interpolation-filters="sRGB">
<feFlood flood-opacity="0" result="BackgroundImageFix"/>
<feColorMatrix in="SourceAlpha" type="matrix" values="0 0 0 0 0 0 0 0 0 0 0 0 0 0 0 0 0 0 127 0" result="hardAlpha"/>
<feOffset dy="20"/>
<feGaussianBlur stdDeviation="10"/>
<feColorMatrix type="matrix" values="0 0 0 0 0.0823529 0 0 0 0 0.145098 0 0 0 0 0.494118 0 0 0 0.22 0"/>
<feBlend mode="normal" in2="BackgroundImageFix" result="effect1_dropShadow_9521_12860"/>
<feBlend mode="normal" in="SourceGraphic" in2="effect1_dropShadow_9521_12860" result="shape"/>
</filter>
</defs>
</svg>
