<svg width="26" height="26" viewBox="0 0 26 26" fill="none" xmlns="http://www.w3.org/2000/svg">
<path fill-rule="evenodd" clip-rule="evenodd" d="M1.3 6.57155H24.7C25.48 6.57155 26 6.05726 26 5.28584C26 4.51441 25.48 4.00012 24.7 4.00012H1.3C0.52 4.00012 0 4.51441 0 5.28584C0 6.05726 0.52 6.57155 1.3 6.57155ZM26 13.0002C26 13.7716 25.48 14.2859 24.7 14.2859H1.3C0.52 14.2859 0 13.7716 0 13.0002C0 12.2287 0.52 11.7145 1.3 11.7145H24.7C25.48 11.7145 26 12.2287 26 13.0002ZM1.3 19.4285H24.7C25.48 19.4285 26 19.9427 26 20.7142C26 21.4856 25.48 21.9999 24.7 21.9999H1.3C0.52 21.9999 0 21.4856 0 20.7142C0 19.9427 0.52 19.4285 1.3 19.4285Z" fill="#282F38"/>
<mask id="mask0_9200_8806" style="mask-type:alpha" maskUnits="userSpaceOnUse" x="0" y="4" width="26" height="18">
<path fill-rule="evenodd" clip-rule="evenodd" d="M1.3 6.57155H24.7C25.48 6.57155 26 6.05726 26 5.28584C26 4.51441 25.48 4.00012 24.7 4.00012H1.3C0.52 4.00012 0 4.51441 0 5.28584C0 6.05726 0.52 6.57155 1.3 6.57155ZM26 13.0002C26 13.7716 25.48 14.2859 24.7 14.2859H1.3C0.52 14.2859 0 13.7716 0 13.0002C0 12.2287 0.52 11.7145 1.3 11.7145H24.7C25.48 11.7145 26 12.2287 26 13.0002ZM1.3 19.4285H24.7C25.48 19.4285 26 19.9427 26 20.7142C26 21.4856 25.48 21.9999 24.7 21.9999H1.3C0.52 21.9999 0 21.4856 0 20.7142C0 19.9427 0.52 19.4285 1.3 19.4285Z" fill="white"/>
</mask>
<g mask="url(#mask0_9200_8806)">
<rect x="-2.60156" y="-2.4281" width="31.2" height="30.8571" fill="#282F38"/>
</g>
</svg>
