<svg width="90" height="90" viewBox="0 0 90 90" fill="none" xmlns="http://www.w3.org/2000/svg">
<g filter="url(#filter0_d_9521_12853)">
<circle cx="45" cy="25" r="25" fill="#325ECD"/>
<g clip-path="url(#clip0_9521_12853)">
<path d="M65.6308 16.2015L59.2396 9.74729C58.7441 9.24689 57.9379 9.24689 57.4424 9.75577L53.7302 13.5723C52.1765 12.7497 50.2113 13.0041 48.9095 14.3187C47.5658 15.6757 47.3474 17.7366 48.2461 19.3226C46.0541 19.9757 44.3912 19.84 43.7193 19.84C42.7451 19.84 41.8381 20.4337 41.4433 21.3497C36.5134 32.8927 35.2789 35.7339 34.9429 36.565C34.8422 36.811 34.5482 36.9128 34.3215 36.7686C32.8265 35.8102 31.9195 34.6907 31.6508 33.4524C31.2476 31.5611 32.3562 29.2203 34.7078 27.0491C36.547 25.3443 36.6646 23.5887 36.4379 22.4183C35.8164 19.1785 31.7515 16.0573 24.6968 13.3942C24.0586 13.1313 23.3279 13.4621 23.0843 14.1236C22.8408 14.7852 23.1683 15.523 23.8234 15.769C29.7443 18.008 33.5404 20.6712 33.9687 22.8932C34.0275 23.1816 34.1955 24.0637 33.0113 25.1577C29.9291 28.0074 28.5769 31.137 29.19 33.9867C29.9543 37.5489 33.5068 39.5928 36.925 40.7548C37.6556 41.0007 38.4955 40.9329 39.075 40.67L54.1082 34.114C55.0404 33.7069 55.6283 32.7739 55.6031 31.7477C55.5611 30.3992 55.6115 28.9319 56.107 27.2526C57.6775 28.1601 59.7267 27.9396 61.0621 26.5826C62.3554 25.2765 62.6074 23.3088 61.8095 21.7398L65.614 18.025C66.1179 17.5331 66.1347 16.7104 65.6308 16.2015ZM59.2648 24.7761C58.6433 25.4037 57.6355 25.4037 57.014 24.7761C56.065 23.8177 51.2023 18.9071 50.69 18.3897C50.0685 17.7621 50.0685 16.7443 50.69 16.1167C51.2947 15.5061 52.3025 15.4806 52.9408 16.1167C53.6463 16.8291 58.5593 21.7907 59.2648 22.5031C59.8947 23.1392 59.8779 24.157 59.2648 24.7761ZM39.8224 37.5573L45.5334 31.7901C46.8435 32.3923 48.4728 32.1717 49.5898 31.0522C51.0008 29.6274 51.0008 27.312 49.5898 25.8956C48.1705 24.4623 45.8861 24.4792 44.4836 25.8956C43.3918 26.9982 43.1482 28.6435 43.7529 29.9921L38.0336 35.7508L43.7445 22.3929C44.6599 22.4268 47.1291 22.5116 50.0769 21.3836L54.0494 25.3952C53.1088 27.8887 53.0164 30.009 53.0668 31.7901L39.8224 37.5573ZM46.2724 27.6936C46.6924 27.2696 47.381 27.2611 47.8009 27.6936C48.2209 28.1177 48.2209 28.8132 47.8009 29.2372C47.381 29.6613 46.6924 29.6613 46.2724 29.2372C45.8525 28.8132 45.8525 28.1177 46.2724 27.6936ZM60.1634 19.7976L55.6535 15.2431L58.3578 12.4698L62.9265 17.0921L60.1634 19.7976Z" fill="white"/>
</g>
</g>
<defs>
<filter id="filter0_d_9521_12853" x="0" y="0" width="90" height="90" filterUnits="userSpaceOnUse" color-interpolation-filters="sRGB">
<feFlood flood-opacity="0" result="BackgroundImageFix"/>
<feColorMatrix in="SourceAlpha" type="matrix" values="0 0 0 0 0 0 0 0 0 0 0 0 0 0 0 0 0 0 127 0" result="hardAlpha"/>
<feOffset dy="20"/>
<feGaussianBlur stdDeviation="10"/>
<feColorMatrix type="matrix" values="0 0 0 0 0.0823529 0 0 0 0 0.145098 0 0 0 0 0.494118 0 0 0 0.22 0"/>
<feBlend mode="normal" in2="BackgroundImageFix" result="effect1_dropShadow_9521_12853"/>
<feBlend mode="normal" in="SourceGraphic" in2="effect1_dropShadow_9521_12853" result="shape"/>
</filter>
<clipPath id="clip0_9521_12853">
<rect width="43" height="43" fill="white" transform="translate(23 4)"/>
</clipPath>
</defs>
</svg>
