<svg width="158" height="53" viewBox="0 0 158 53" fill="none" xmlns="http://www.w3.org/2000/svg">
<path fill-rule="evenodd" clip-rule="evenodd" d="M147.787 0H10.3685C2.16243 0 0.800781 2.86515 0.800781 9.67892V43.3385C0.800781 50.1522 3.60842 52.9572 10.3564 52.9572H147.787C154.535 52.9572 157.451 50.1402 157.451 43.3264V9.67892C157.451 2.86515 154.547 0 147.787 0ZM155.294 43.3385C155.294 46.1555 154.752 48.0576 153.643 49.1531C152.534 50.2486 150.618 50.7903 147.787 50.7903H10.3564C7.54877 50.7903 5.65694 50.2606 4.57244 49.1651C3.48794 48.0696 2.95772 46.1675 2.95772 43.3385V9.67892C2.95772 6.44057 3.30717 4.65888 4.12657 3.71988C5.04237 2.6605 7.03063 2.17896 10.3685 2.17896H147.787C150.606 2.17896 152.51 2.72068 153.631 3.82822C154.752 4.9478 155.294 6.84988 155.294 9.67892V43.3385ZM78.2341 30.361C75.3662 30.361 73.0887 32.54 73.0887 35.5616C73.0887 38.4629 75.3662 40.7622 78.2341 40.7622C81.102 40.7622 83.3794 38.5833 83.3794 35.5616C83.3915 32.4196 81.114 30.361 78.2341 30.361ZM78.2341 38.5833C76.6796 38.5833 75.3662 37.2591 75.3662 35.4412C75.3662 33.6234 76.6796 32.2992 78.2341 32.2992C79.7885 32.2992 81.102 33.503 81.102 35.4412C81.1141 37.247 79.8006 38.5833 78.2341 38.5833ZM53.8208 31.938V34.117H58.9661C58.8456 35.3209 58.3636 36.296 57.7732 36.8979C57.0502 37.6202 55.8572 38.4629 53.8208 38.4629C50.5914 38.4629 48.1934 35.9228 48.1934 32.6604C48.1934 29.3979 50.7119 26.8578 53.8208 26.8578C55.4957 26.8578 56.8092 27.5801 57.7732 28.4228L59.3276 26.8578C58.0142 25.654 56.3392 24.6789 53.9413 24.6789C49.6274 24.6789 45.916 28.3024 45.916 32.6483C45.916 36.9942 49.6274 40.6298 53.9413 40.6298C56.3392 40.6298 58.0142 39.9075 59.4481 38.3305C60.8821 36.8858 61.3641 34.8273 61.3641 33.2502C61.3641 32.7687 61.3641 32.2872 61.2436 31.926H53.8208V31.938ZM142.292 37.1266H142.171L139.532 30.6018H137.135L141.087 39.7871L138.809 44.8674H141.087L147.196 30.6018H144.798L142.292 37.1266ZM67.0999 30.361C64.232 30.361 61.9545 32.54 61.9545 35.5616C61.9545 38.4629 64.232 40.7622 67.0999 40.7622C69.9678 40.7622 72.2452 38.5833 72.2452 35.5616C72.2573 32.4196 69.9798 30.361 67.0999 30.361ZM67.0999 38.5833C65.5454 38.5833 64.232 37.2591 64.232 35.4412C64.232 33.6234 65.5454 32.2992 67.0999 32.2992C68.6543 32.2992 69.9678 33.503 69.9678 35.4412C69.9798 37.247 68.6664 38.5833 67.0999 38.5833ZM92.0072 31.4445C91.4047 30.8425 90.4528 30.2406 89.2478 30.2406C86.7293 30.2406 84.3434 32.54 84.3434 35.4412C84.3434 38.3425 86.6209 40.5215 89.2478 40.5215C90.4407 40.5215 91.4047 39.9196 91.8867 39.3176H92.0072V40.0399C92.0072 41.9781 90.9348 43.0616 89.2478 43.0616C87.9343 43.0616 86.9703 42.0985 86.7293 41.2438L84.8134 42.0865C85.4159 43.4227 86.8498 45.1081 89.3683 45.1081C92.0072 45.1081 94.1521 43.5311 94.1521 39.7871V30.6018H91.9952V31.4445H92.0072ZM89.3683 38.5833C87.8138 38.5833 86.5004 37.2591 86.5004 35.4412C86.5004 33.6234 87.8138 32.2992 89.3683 32.2992C90.9227 32.2992 92.1277 33.6234 92.1277 35.4412C92.1277 37.247 90.9348 38.5833 89.3683 38.5833ZM118.59 25.1604H113.203V40.2687H115.481V34.5865H118.59C121.108 34.5865 123.494 32.7687 123.494 29.8674C123.494 26.9782 121.096 25.1604 118.59 25.1604ZM118.71 32.4196H115.481V27.219H118.71C120.385 27.219 121.349 28.6636 121.349 29.7591C121.216 31.0833 120.264 32.4196 118.71 32.4196ZM124.687 40.2687H126.964V25.1604H124.687V40.2687ZM108.166 33.6234C107.684 32.4196 106.491 30.361 103.852 30.361C101.213 30.361 99.0685 32.4196 99.0685 35.5616C99.0685 38.4629 101.225 40.7622 104.093 40.7622C106.371 40.7622 107.805 39.3056 108.287 38.4629L106.612 37.259C106.009 38.1017 105.298 38.7037 104.093 38.7037C102.888 38.7037 102.177 38.2221 101.575 37.1266L108.395 34.2253L108.166 33.6234ZM101.225 35.3209C101.225 33.3827 102.78 32.2992 103.864 32.2992C104.708 32.2992 105.539 32.7807 105.78 33.3827L101.225 35.3209ZM95.5982 40.2687H97.8756V25.1604H95.5982V40.2687ZM132.471 30.2406C130.796 30.2406 129.121 30.9629 128.519 32.54L130.555 33.3827C131.037 32.54 131.748 32.2992 132.592 32.2992C133.785 32.2992 134.869 33.0215 134.99 34.2374V34.3578C134.628 34.117 133.676 33.7558 132.712 33.7558C130.555 33.7558 128.398 34.9597 128.398 37.1387C128.398 39.1972 130.194 40.5215 132.11 40.5215C133.664 40.5215 134.387 39.7992 134.978 39.0769H135.098V40.2807H137.255V34.4782C137.026 31.8177 134.99 30.2406 132.471 30.2406ZM132.23 38.5833C131.507 38.5833 130.435 38.2221 130.435 37.259C130.435 36.0552 131.748 35.682 132.833 35.682C133.785 35.682 134.267 35.9228 134.869 36.1635C134.628 37.6082 133.435 38.5833 132.23 38.5833ZM34.2516 21.8137L15.5018 10.9189L30.3112 25.7864L34.2516 21.8137ZM13.7545 11.0393C13.6822 11.1717 13.6099 11.3282 13.6099 11.4847V42.3032C13.6099 42.3995 13.6581 42.4958 13.6822 42.58L29.3713 26.7134L13.7545 11.0393ZM14.9354 43.182C14.9836 43.1699 15.0198 43.1459 15.068 43.1218L34.5046 31.8417L30.3233 27.6403L14.9354 43.182ZM35.3963 22.4878L31.215 26.7134L35.6494 31.1676L41.6021 27.7126C42.2166 27.3514 42.2166 26.4485 41.6021 26.0874L35.3963 22.4878Z" fill="#282F38"/>
</svg>
