<svg width="157" height="53" viewBox="0 0 157 53" fill="none" xmlns="http://www.w3.org/2000/svg">
<path fill-rule="evenodd" clip-rule="evenodd" d="M146.986 0H9.5677C1.36165 0 0 2.86515 0 9.67892V43.3385C0 50.1522 2.80765 52.9572 9.55565 52.9572H146.986C153.734 52.9572 156.65 50.1402 156.65 43.3264V9.67892C156.65 2.86515 153.746 0 146.986 0ZM154.493 43.3385C154.493 46.1555 153.951 48.0576 152.842 49.1531C151.734 50.2486 149.818 50.7903 146.986 50.7903H9.55565C6.748 50.7903 4.85615 50.2606 3.77165 49.1651C2.68715 48.0696 2.15695 46.1675 2.15695 43.3385V9.67892C2.15695 6.44057 2.5064 4.65888 3.3258 3.71988C4.2416 2.6605 6.22985 2.17896 9.5677 2.17896H146.986C149.806 2.17896 151.709 2.72068 152.83 3.82822C153.951 4.9478 154.493 6.84988 154.493 9.67892V43.3385ZM39.8614 19.4662C38.1262 17.2872 35.7041 16.0232 33.4026 16.0232C30.366 16.0232 29.0887 17.4799 26.9799 17.4799C24.8109 17.4799 23.1601 16.0232 20.5332 16.0232C17.9545 16.0232 15.2191 17.6002 13.4839 20.3089C11.0378 24.113 11.4596 31.2519 15.412 37.3433C16.8339 39.5223 18.7257 41.9661 21.1959 41.9902C23.4011 42.0142 24.0156 40.5696 27.004 40.5576C29.9924 40.5456 30.5588 42.0022 32.7519 41.9902C35.2221 41.9661 37.2224 39.2574 38.6443 37.0785C39.6565 35.5135 40.0421 34.731 40.8254 32.9613C35.1137 30.7824 34.1858 22.6082 39.8614 19.4662ZM31.101 13.5914C32.1976 12.1588 33.0411 10.1484 32.7398 8.08985C30.9444 8.21023 28.8356 9.36592 27.6065 10.8828C26.4859 12.2551 25.5701 14.2776 25.9316 16.2519C27.8957 16.3121 29.9201 15.1203 31.101 13.5914ZM117.548 28.808C115.728 28.808 114.282 29.3979 113.21 30.5897C112.137 31.7816 111.595 33.3104 111.595 35.1764C111.595 36.9581 112.113 38.4509 113.149 39.6186C114.186 40.7984 115.596 41.3762 117.343 41.3762C119.162 41.3762 120.62 40.7622 121.717 39.5464C122.765 38.3546 123.284 36.8377 123.284 34.9717C123.284 33.166 122.777 31.6852 121.765 30.5536C120.717 29.3859 119.307 28.808 117.548 28.808ZM119.813 37.9091C119.247 38.8842 118.439 39.3778 117.439 39.3778C116.403 39.3778 115.596 38.8963 115.029 37.9452C114.547 37.1507 114.318 36.2117 114.318 35.0921C114.318 33.9485 114.559 32.9854 115.029 32.2029C115.584 31.2398 116.391 30.7703 117.463 30.7703C118.5 30.7703 119.295 31.2519 119.849 32.2029C120.319 32.9974 120.56 33.9485 120.56 35.044C120.548 36.1515 120.307 37.1026 119.813 37.9091ZM130.658 28.8321C129.971 28.8321 129.309 29.0729 128.718 29.5063C128.104 29.9878 127.67 30.686 127.393 31.4685H127.32L127.224 28.9766H124.91C124.958 30.2166 125.019 31.4565 125.019 32.8409V40.9669H127.646V34.7791C127.646 33.816 127.875 33.0336 128.32 32.3955C128.827 31.6852 129.562 31.3241 130.489 31.3241C130.779 31.3241 131.188 31.3482 131.345 31.3963V28.8442C131.188 28.8201 130.899 28.8321 130.658 28.8321ZM52.9597 24.3057L47.6336 40.9789H50.381L51.8632 36.1515H57.2495L58.7919 40.9789H61.6237L56.2614 24.3057H52.9597ZM52.3331 34.2735L53.7068 29.8433C54.0683 28.4469 54.3335 27.4116 54.5022 26.6291H54.5503C54.96 28.182 55.2372 29.3859 55.3938 29.8433L56.7916 34.2735H52.3331ZM108.04 26.0392L105.257 26.8337V28.9766H103.558V31.1556H105.257V37.1387C105.257 38.6676 105.582 39.751 106.173 40.3891C106.763 41.0391 107.619 41.3521 108.655 41.3521C109.51 41.3521 110.197 41.2558 110.727 41.0512L110.667 39.0167C110.354 39.1009 109.992 39.137 109.522 39.137C108.486 39.137 108.028 38.4027 108.028 36.9099V31.1435H110.812V28.9645H108.028V26.0392H108.04ZM137.792 28.7719C136.044 28.7719 134.647 29.422 133.61 30.7101C132.634 31.926 132.14 33.4308 132.14 35.2607C132.14 37.1146 132.67 38.5953 133.731 39.6908C134.791 40.7863 136.249 41.3401 138.093 41.3401C139.635 41.3401 140.973 41.0993 142.106 40.6057L141.684 38.7518C140.72 39.1371 139.647 39.3417 138.467 39.3417C137.394 39.3417 136.526 39.0889 135.864 38.5231C135.129 37.8971 134.743 36.934 134.707 35.8505H142.672C142.732 35.5375 142.768 35.056 142.768 34.5865C142.768 33.0817 142.419 31.7575 141.708 30.7342C140.816 29.422 139.515 28.7719 137.792 28.7719ZM134.695 33.9605C134.779 33.0215 135.044 32.3835 135.478 31.8056C136.02 31.0833 136.731 30.6379 137.599 30.6379C138.551 30.6379 139.25 31.0954 139.72 31.8297C140.081 32.4076 140.25 33.0336 140.238 33.9605H134.695ZM82.8437 28.8201C81.0362 28.8201 79.6987 29.5905 78.807 30.999H78.7588L78.6021 28.9766H76.2765C76.3367 30.5296 76.3849 31.7214 76.3849 33.0095V46.1073H79.0118V39.6667C79.783 40.8104 80.8435 41.3882 82.4341 41.3882C83.9042 41.3882 85.1332 40.8585 86.1334 39.7992C87.242 38.6074 87.7963 36.9942 87.7963 34.9356C87.7963 33.1058 87.3263 31.625 86.3864 30.4934C85.4345 29.3739 84.2536 28.8201 82.8437 28.8201ZM84.2536 38.1138C83.6993 38.8963 82.916 39.2815 81.9159 39.2815C81.0724 39.2815 80.3735 38.9806 79.8312 38.3786C79.301 37.7767 79.0239 37.0303 79.0239 36.1515V34.1411C79.0239 33.9244 79.0721 33.6595 79.1564 33.3225C79.3251 32.6122 79.6866 32.0344 80.2168 31.5889C80.747 31.1435 81.3375 30.9268 82.0003 30.9268C82.9642 30.9268 83.7354 31.3361 84.3138 32.1186C84.832 32.877 85.0971 33.8522 85.0971 35.0199C85.085 36.308 84.8079 37.3313 84.2536 38.1138ZM98.7859 31.4806C97.6291 31.0111 96.8217 30.5897 96.3759 30.1925C95.8698 29.7591 95.6167 29.2053 95.6167 28.5552C95.6167 27.9654 95.8336 27.4597 96.2795 27.0384C96.8097 26.5809 97.5447 26.3402 98.4726 26.3402C99.6535 26.3402 100.714 26.593 101.654 27.1106L102.329 24.9196C101.328 24.3899 100.075 24.1251 98.569 24.1251C96.882 24.1251 95.5203 24.5705 94.4961 25.4373C93.4718 26.3161 92.9657 27.4357 92.9657 28.8201C92.9657 30.9148 94.4238 32.5159 97.3158 33.6114C98.3882 34.0087 99.1353 34.4421 99.6053 34.8995C100.063 35.369 100.292 35.9348 100.292 36.609C100.292 37.3794 100.015 37.9813 99.4607 38.4388C98.9064 38.8842 98.1231 39.125 97.123 39.125C95.7372 39.125 94.4599 38.7759 93.2911 38.0777L92.6766 40.3048C93.761 41.003 95.1829 41.3521 96.9663 41.3521C98.8943 41.3521 100.401 40.8706 101.485 39.8834C102.461 38.9926 102.955 37.8369 102.955 36.4043C102.955 35.2486 102.618 34.2855 101.943 33.503C101.268 32.7326 100.22 32.0584 98.7859 31.4806ZM69.7213 28.8201C67.9138 28.8201 66.5762 29.5905 65.6845 30.999H65.6363L65.4917 28.9766H63.154C63.2263 30.5296 63.2866 31.7214 63.2866 33.0095V46.1073H65.9135V39.6667C66.6847 40.8104 67.7451 41.3882 69.3236 41.3882C70.7937 41.3882 72.0228 40.8585 73.0109 39.7992C74.1195 38.6074 74.6738 36.9942 74.6738 34.9356C74.6738 33.1058 74.2039 31.625 73.264 30.4934C72.3 29.3739 71.1311 28.8201 69.7213 28.8201ZM71.1191 38.1138C70.5648 38.8963 69.7815 39.2815 68.7814 39.2815C67.9258 39.2815 67.239 38.9806 66.7088 38.3786C66.1665 37.7767 65.9135 37.0303 65.9135 36.1515V34.1411C65.9135 33.9244 65.9617 33.6595 66.034 33.3225C66.2027 32.6122 66.5521 32.0344 67.0823 31.5889C67.6125 31.1435 68.203 30.9268 68.8657 30.9268C69.8298 30.9268 70.6009 31.3361 71.1793 32.1186C71.7095 32.877 71.9626 33.8522 71.9626 35.0199C71.9505 36.308 71.6734 37.3313 71.1191 38.1138Z" fill="#282F38"/>
</svg>
