<svg width="22" height="22" viewBox="0 0 22 22" fill="none" xmlns="http://www.w3.org/2000/svg">
<path d="M17.8868 10.4089L14.7734 7.29554V1.93359C14.7734 0.86741 13.906 0 12.8398 0H4.41797C3.35179 0 2.48438 0.86741 2.48438 1.93359V20.0664C2.48438 21.1326 3.35179 22 4.41797 22H17.5664C17.8735 22 18.1378 21.7834 18.1983 21.4824L19.3994 15.5034C19.7746 13.6357 19.2091 11.7313 17.8868 10.4089ZM4.41797 1.28906H12.8398C13.1952 1.28906 13.4844 1.5782 13.4844 1.93359V10.2471C12.6938 9.46743 11.4238 9.47173 10.6386 10.2569C9.85184 11.0424 9.84806 12.3176 10.6334 13.1082L13.1022 15.6749C12.567 16.0743 11.8736 16.7715 11.3757 17.918H3.77344V1.93359C3.77344 1.5782 4.06253 1.28906 4.41797 1.28906ZM3.77344 20.0664V19.207H10.9591C10.8569 19.659 10.7846 20.1587 10.7528 20.7109H4.41797C4.06253 20.7109 3.77344 20.4218 3.77344 20.0664ZM18.1356 15.2495L17.0385 20.7109C16.002 20.7109 13.109 20.7109 12.0448 20.7109C12.1378 19.3419 12.5318 18.1946 13.1984 17.3665C13.751 16.6799 14.3136 16.4337 14.3584 16.4149C14.7801 16.2639 14.9309 15.7165 14.5934 15.3657C11.5459 12.1974 11.5553 12.207 11.5498 12.2016C11.2667 11.9185 11.2622 11.4559 11.5498 11.1687C11.8339 10.8846 12.2958 10.8839 12.5809 11.1666C13.9435 12.5604 13.2809 11.8916 15.6654 14.276C15.9171 14.5277 16.3252 14.5278 16.5769 14.276C16.8286 14.0243 16.8286 13.6162 16.5769 13.3645L14.7734 11.5611V9.11857L16.9753 11.3204C17.9918 12.337 18.4257 13.8058 18.1356 15.2495Z" fill="#282F38"/>
</svg>
